<?xml version="1.0" encoding="UTF-8" standalone="no"?>
<svg width="96px" height="96px" viewBox="0 0 96 96" version="1.1" xmlns="http://www.w3.org/2000/svg" xmlns:xlink="http://www.w3.org/1999/xlink">
    <!-- Generator: Sketch 42 (36781) - http://www.bohemiancoding.com/sketch -->
    <title>noun_45131_EE543A</title>
    <desc>Created with Sketch.</desc>
    <defs></defs>
    <g id="Welcome" stroke="none" stroke-width="1" fill="none" fill-rule="evenodd">
        <g id="Error-transferência" transform="translate(-672.000000, -407.000000)" fill-rule="nonzero" fill="#EE543A">
            <g id="noun_45131_EE543A" transform="translate(672.000000, 406.000000)">
                <g id="Group" transform="translate(0.000000, 0.844329)">
                    <path d="M48.0210488,0.191761721 C60.3040218,0.191761721 72.5648813,4.86878323 81.9154056,14.2154131 C100.616322,32.9086729 100.657906,63.3655598 81.9564597,82.0588196 C63.2555435,100.752079 32.7443056,100.752212 14.0433894,82.0588196 C-4.65779173,63.3655598 -4.61634038,32.9088053 14.0844434,14.2154131 C23.4348353,4.86878323 35.7371461,0.191761721 48.0202542,0.191761721 L48.0210488,0.191761721 Z M48.0210488,9.2099636 C38.0761677,9.2099636 28.1181758,13.0123685 20.4998677,20.6275036 C6.34376773,34.77784 5.33357314,56.9620739 17.4786866,72.2546939 C17.5454399,72.1835608 17.6144731,72.1146005 17.6856785,72.0479206 L72.1070624,17.6077132 C65.0477516,12.011861 56.5458569,9.2099636 48.0210488,9.2099636 L48.0210488,9.2099636 Z M78.5218245,24.0196713 L24.1003083,78.4184446 C24.0208219,78.5043973 23.9380336,78.5872394 23.8521299,78.6667843 C39.1539029,90.793337 61.3923516,89.7908439 75.5420948,75.6468616 C89.690911,61.5039382 90.6539597,39.311497 78.5218245,24.0196713 L78.5218245,24.0196713 Z" id="Shape"></path>
                </g>
            </g>
        </g>
    </g>
</svg>